<svg width="14" height="14" viewBox="0 0 14 14" version="1.1" xmlns="http://www.w3.org/2000/svg" xmlns:xlink="http://www.w3.org/1999/xlink">
<title>viber-c7e034d1e5fc0b41f77f1d2085d7f21a</title>
<desc>Created using Figma</desc>
<g id="Canvas" transform="translate(-492 -4826)">
<g id="viber-c7e034d1e5fc0b41f77f1d2085d7f21a">
<g id="ic_viber">
<use xlink:href="#path0_fill" transform="translate(492 4826)" fill="#5A5A5A"/>
</g>
</g>
</g>
<defs>
<path id="path0_fill" fill-rule="evenodd" d="M 13.8688 6.37144C 13.9097 3.12729 11.0248 0.11997 7.67432 0.00913056C 7.65457 0.0120602 7.63318 0.0135251 7.6105 0.0135251C 7.56494 0.0140134 7.51419 0.0105954 7.46115 0.00717743C 7.20267 -0.00991241 6.89062 -0.0313968 6.86587 0.393896C 6.8609 0.478369 6.87955 0.540869 6.91476 0.586767C 6.94299 0.623877 6.98187 0.650732 7.02774 0.670752C 7.17764 0.735693 7.4021 0.724463 7.57339 0.750341C 11.0615 1.27622 12.6701 2.9022 13.1144 6.34653C 13.1217 6.40269 13.1239 6.46372 13.1252 6.52671L 13.1259 6.57065C 13.1306 6.85093 13.1354 7.14536 13.4977 7.1522C 13.9022 7.16001 13.8871 6.83188 13.8734 6.53794C 13.8708 6.48032 13.8682 6.42368 13.8688 6.37144ZM 11.0509 13.9686C 11.1014 13.9803 11.146 13.9901 11.1822 13.9999C 12.2686 14.0106 13.541 12.9847 13.9087 11.9662C 14.2196 11.1053 13.6795 10.7 13.1426 10.2977C 13.0687 10.2425 12.9948 10.1874 12.9233 10.1307C 12.6646 9.92661 12.3957 9.7352 12.124 9.54722C 11.9379 9.4188 11.7506 9.29185 11.5644 9.16392C 10.6506 8.53452 9.81503 8.48569 9.13339 9.49741C 8.75064 10.0658 8.21497 10.0907 7.65445 9.84116C 6.10953 9.15464 4.91678 8.09653 4.21808 6.55747C 3.90909 5.87632 3.91296 5.26597 4.63654 4.78403C 5.01926 4.52915 5.40485 4.22788 5.37405 3.67124C 5.33368 2.94565 3.53644 0.520361 2.8266 0.264013C 2.53287 0.158545 2.2402 0.165381 1.94156 0.263525C 0.277343 0.812353 -0.412324 2.15415 0.248077 3.74351C 2.21741 8.48374 5.68381 11.784 10.455 13.7982C 10.6537 13.8822 10.8686 13.9291 11.0296 13.9642L 11.0509 13.9686ZM 12.1488 5.78989C 12.1409 5.848 12.1432 5.91587 12.1457 5.98667C 12.1534 6.20591 12.162 6.44956 11.8654 6.49399C 11.4409 6.55747 11.4228 6.2645 11.4057 5.98862C 11.4014 5.92026 11.3972 5.85288 11.387 5.79233C 11.0324 3.69712 10.2822 2.92856 8.12784 2.4564C 8.07095 2.44419 8.00836 2.4354 7.94446 2.42661L 7.93256 2.42515C 7.6434 2.38608 7.33246 2.34409 7.39886 1.9564C 7.46518 1.56919 7.79434 1.62241 8.09726 1.67075L 8.10541 1.67222C 8.15674 1.68052 8.20721 1.68882 8.25543 1.69419C 10.408 1.94761 12.1662 3.77866 12.1488 5.78989ZM 10.1723 5.99106C 10.4927 5.95395 10.5217 5.67417 10.5116 5.40854C 10.5274 4.43833 9.40839 3.31626 8.45322 3.3397C 8.22937 3.34507 8.00992 3.36851 7.92737 3.60337C 7.80392 3.95395 8.06375 4.03745 8.32849 4.07944C 9.21249 4.2186 9.67728 4.72935 9.7655 5.59311C 9.78958 5.82798 9.94122 6.01792 10.1723 5.99106Z"/>
</defs>
</svg>
